<svg width="32" height="32" viewBox="0 0 32 32" fill="none" xmlns="http://www.w3.org/2000/svg">
<path fill-rule="evenodd" clip-rule="evenodd" d="M0 16C0 7.16344 7.16344 0 16 0C24.8366 0 32 7.16344 32 16C32 24.8366 24.8366 32 16 32C7.16344 32 0 24.8366 0 16Z" fill="#FED200"/>
<path d="M8 24L9.19496 19.6345C8.45758 18.3567 8.07012 16.9082 8.07083 15.4228C8.07296 10.779 11.8519 7 16.495 7C18.7482 7.00071 20.8633 7.87833 22.4542 9.47067C24.0444 11.063 24.9199 13.1795 24.9192 15.4306C24.9171 20.0751 21.1381 23.8541 16.495 23.8541C15.0854 23.8534 13.6964 23.4999 12.466 22.8284L8 24ZM12.6729 21.3034C13.86 22.0082 14.9934 22.4303 16.4922 22.431C20.3512 22.431 23.4948 19.2903 23.4969 15.4292C23.4983 11.5602 20.3696 8.42375 16.4979 8.42233C12.636 8.42233 9.49458 11.5631 9.49316 15.4235C9.49246 16.9995 9.95429 18.1796 10.7299 19.4142L10.0223 21.9982L12.6729 21.3034ZM20.7386 17.433C20.6862 17.3452 20.546 17.2928 20.3349 17.1873C20.1245 17.0817 19.0896 16.5724 18.8963 16.5023C18.7036 16.4322 18.5634 16.3967 18.4224 16.6078C18.2821 16.8182 17.8784 17.2928 17.7559 17.433C17.6333 17.5733 17.5101 17.591 17.2997 17.4855C17.0893 17.3799 16.4107 17.1582 15.6068 16.4407C14.9813 15.8825 14.5584 15.1933 14.4359 14.9822C14.3134 14.7718 14.4232 14.6578 14.528 14.553C14.6229 14.4587 14.7384 14.3072 14.8439 14.1839C14.9509 14.0621 14.9856 13.9742 15.0564 13.8333C15.1265 13.693 15.0918 13.5698 15.0387 13.4643C14.9856 13.3594 14.5648 12.3231 14.3899 11.9017C14.2184 11.4915 14.0449 11.5468 13.916 11.5404L13.5122 11.5333C13.372 11.5333 13.1439 11.5857 12.9512 11.7968C12.7586 12.0079 12.2146 12.5165 12.2146 13.5528C12.2146 14.5891 12.9689 15.59 13.0738 15.7302C13.1793 15.8705 14.5577 17.9969 16.6693 18.9085C17.1715 19.1252 17.5639 19.2549 17.8692 19.3519C18.3735 19.512 18.8325 19.4893 19.1952 19.4355C19.5996 19.3753 20.4404 18.9262 20.6161 18.4346C20.7918 17.9423 20.7918 17.5209 20.7386 17.433Z" fill="#18181B"/>
</svg>
