<svg width="86" height="24" viewBox="0 0 86 24" fill="none" xmlns="http://www.w3.org/2000/svg">
<g clip-path="url(#clip0_97_1899)">
<path d="M13.5195 21.7054C13.3157 21.0476 13.2007 20.6752 13.1751 20.5889C13.1496 20.5029 13.1311 20.4344 13.1204 20.3844C13.0742 20.5626 12.9429 21.0027 12.7271 21.7054H13.5195ZM13.8945 22.9746L13.6736 22.2482H12.5644L12.3442 22.9746H11.6489L12.7228 19.911H13.511L14.589 22.9746H13.8945Z" fill="#5B5C5E"/>
<path d="M16.8649 22.1288C16.8649 22.4044 16.7654 22.6211 16.568 22.7798C16.3705 22.9386 16.095 23.0176 15.7428 23.0176C15.4182 23.0176 15.1305 22.9563 14.8813 22.8338V22.233C15.0866 22.3246 15.2605 22.3894 15.4026 22.4272C15.5446 22.4649 15.6746 22.4836 15.7924 22.4836C15.9345 22.4836 16.0431 22.4565 16.1183 22.4025C16.1944 22.3483 16.232 22.2669 16.232 22.1602C16.232 22.1002 16.2156 22.0469 16.1822 22.0007C16.1489 21.9538 16.0999 21.9088 16.0353 21.8659C15.9707 21.8225 15.8394 21.7535 15.6411 21.6595C15.4551 21.5713 15.3152 21.4872 15.2222 21.4067C15.1293 21.3263 15.0553 21.2321 15 21.1245C14.9438 21.0178 14.9161 20.8925 14.9161 20.7492C14.9161 20.4795 15.0077 20.2672 15.1901 20.1127C15.3727 19.958 15.6249 19.8812 15.9466 19.8812C16.105 19.8812 16.2554 19.8996 16.3997 19.9374C16.5431 19.9753 16.6929 20.0278 16.8498 20.0962L16.6418 20.5991C16.4792 20.5321 16.3449 20.4857 16.2391 20.4596C16.1326 20.4331 16.0282 20.4197 15.9259 20.4197C15.8038 20.4197 15.7101 20.4481 15.6447 20.505C15.5794 20.5621 15.5467 20.6369 15.5467 20.7287C15.5467 20.7856 15.5603 20.8358 15.5864 20.8775C15.6128 20.9202 15.6547 20.9609 15.7122 21.0009C15.7698 21.0408 15.906 21.1119 16.1211 21.2145C16.406 21.3513 16.6006 21.4879 16.7064 21.6247C16.8115 21.7622 16.8649 21.9294 16.8649 22.1288Z" fill="#5B5C5E"/>
<path d="M19.3081 22.1288C19.3081 22.4044 19.2086 22.6211 19.0113 22.7798C18.8137 22.9386 18.5383 23.0176 18.186 23.0176C17.8616 23.0176 17.5739 22.9563 17.3247 22.8338V22.233C17.5299 22.3246 17.7039 22.3894 17.8459 22.4272C17.9879 22.4649 18.1178 22.4836 18.2357 22.4836C18.3778 22.4836 18.4864 22.4565 18.5617 22.4025C18.6378 22.3483 18.6753 22.2669 18.6753 22.1602C18.6753 22.1002 18.659 22.0469 18.6257 22.0007C18.5923 21.9538 18.5433 21.9088 18.4787 21.8659C18.4141 21.8225 18.2827 21.7535 18.0846 21.6595C17.8984 21.5713 17.7585 21.4872 17.6655 21.4067C17.5724 21.3263 17.4986 21.2321 17.4432 21.1245C17.3872 21.0178 17.3594 20.8925 17.3594 20.7492C17.3594 20.4795 17.4511 20.2672 17.6336 20.1127C17.8161 19.958 18.0682 19.8812 18.3898 19.8812C18.5483 19.8812 18.6987 19.8996 18.8429 19.9374C18.9864 19.9753 19.1362 20.0278 19.2932 20.0962L19.0852 20.5991C18.9225 20.5321 18.7884 20.4857 18.6823 20.4596C18.5759 20.4331 18.4716 20.4197 18.3694 20.4197C18.2471 20.4197 18.1533 20.4481 18.0881 20.505C18.0227 20.5621 17.9901 20.6369 17.9901 20.7287C17.9901 20.7856 18.0036 20.8358 18.0298 20.8775C18.0562 20.9202 18.098 20.9609 18.1556 21.0009C18.213 21.0408 18.3493 21.1119 18.5646 21.2145C18.8494 21.3513 19.044 21.4879 19.1498 21.6247C19.2549 21.7622 19.3081 21.9294 19.3081 22.1288Z" fill="#5B5C5E"/>
<path d="M20.4957 21.4458C20.4957 21.787 20.5603 22.0433 20.6889 22.2164C20.818 22.3887 21.0113 22.4751 21.2676 22.4751C21.7824 22.4751 22.0395 22.1315 22.0395 21.4458C22.0395 20.7585 21.7838 20.4155 21.2719 20.4155C21.0149 20.4155 20.8215 20.5023 20.6911 20.6754C20.561 20.8484 20.4957 21.1054 20.4957 21.4458ZM22.7155 21.4458C22.7155 21.9517 22.5913 22.3396 22.3413 22.6111C22.0913 22.8824 21.7334 23.0176 21.2676 23.0176C20.8018 23.0176 20.4437 22.8824 20.194 22.6111C19.9438 22.3396 19.8196 21.9501 19.8196 21.4424C19.8196 20.9345 19.9446 20.5465 20.1952 20.2787C20.4453 20.0108 20.8046 19.877 21.2719 19.877C21.7391 19.877 22.097 20.0117 22.3443 20.2815C22.592 20.5513 22.7155 20.9395 22.7155 21.4458Z" fill="#5B5C5E"/>
<path d="M24.7335 20.4197C24.4906 20.4197 24.3031 20.5107 24.1697 20.6939C24.0368 20.8769 23.97 21.1319 23.97 21.4588C23.97 22.1387 24.2243 22.4793 24.7335 22.4793C24.9465 22.4793 25.2059 22.4258 25.509 22.3183V22.8609C25.2598 22.9655 24.9806 23.0176 24.6731 23.0176C24.2308 23.0176 23.8926 22.8829 23.6584 22.6138C23.424 22.3447 23.3069 21.9578 23.3069 21.4544C23.3069 21.1375 23.3643 20.8599 23.4794 20.6212C23.5945 20.3827 23.7599 20.1994 23.9752 20.0721C24.1909 19.9444 24.4437 19.8812 24.7335 19.8812C25.029 19.8812 25.3251 19.9532 25.6233 20.0962L25.4154 20.6219C25.3016 20.5679 25.1873 20.5209 25.0723 20.4802C24.9573 20.4396 24.8443 20.4197 24.7335 20.4197Z" fill="#5B5C5E"/>
<path d="M26.2527 22.9746V19.9237H26.8976V22.9746H26.2527Z" fill="#5B5C5E"/>
<path d="M29.247 21.7054C29.0432 21.0476 28.9282 20.6752 28.9026 20.5889C28.877 20.5029 28.8586 20.4344 28.8479 20.3844C28.8017 20.5626 28.6704 21.0027 28.4545 21.7054H29.247ZM29.622 22.9746L29.4011 22.2482H28.2919L28.0717 22.9746H27.3765L28.4502 19.911H29.2386L30.3165 22.9746H29.622Z" fill="#5B5C5E"/>
<path d="M32.3216 23.4976C32.3216 23.6747 32.2697 23.8031 32.1646 23.882C32.0602 23.961 31.8984 24.001 31.6788 24.001C31.5708 24.001 31.4693 23.986 31.3749 23.9575V23.6064C31.4125 23.6163 31.463 23.6265 31.5262 23.6356C31.5894 23.6455 31.6384 23.6506 31.6725 23.6506C31.7726 23.6506 31.8224 23.6072 31.8224 23.521C31.8224 23.4064 31.7071 23.3309 31.4772 23.2959L31.639 22.9753H32.0411L31.9849 23.1038C32.0871 23.1371 32.1695 23.1884 32.2299 23.2588C32.291 23.3287 32.3216 23.4084 32.3216 23.4976ZM32.0021 20.4202C31.7592 20.4202 31.5716 20.5112 31.4382 20.6944C31.3054 20.8774 31.2386 21.1324 31.2386 21.4593C31.2386 22.1392 31.4928 22.4798 32.0021 22.4798C32.2149 22.4798 32.4743 22.4263 32.7775 22.3188V22.8614C32.5281 22.966 32.2492 23.0181 31.9416 23.0181C31.4991 23.0181 31.1612 22.8834 30.9268 22.6143C30.6924 22.3452 30.5752 21.9583 30.5752 21.4549C30.5752 21.1381 30.6328 20.8604 30.7478 20.6217C30.8628 20.3832 31.0284 20.1999 31.2435 20.0726C31.4594 19.9449 31.7122 19.8817 32.0021 19.8817C32.2974 19.8817 32.5935 19.9537 32.8918 20.0967L32.6838 20.6224C32.5701 20.5685 32.4559 20.5214 32.3406 20.4807C32.2258 20.4401 32.1129 20.4202 32.0021 20.4202Z" fill="#5B5C5E"/>
<path d="M34.2682 19.4607C34.2249 19.4607 34.1837 19.4793 34.1446 19.5165C34.105 19.5529 34.0759 19.609 34.058 19.6845H33.7483C33.7633 19.4829 33.8207 19.3249 33.9197 19.21C34.0189 19.0962 34.1504 19.0392 34.3138 19.0392C34.3712 19.0392 34.4267 19.0506 34.4813 19.0733C34.5361 19.097 34.5906 19.1218 34.6439 19.1487C34.6973 19.176 34.7498 19.2008 34.8009 19.223C34.852 19.2458 34.9032 19.2564 34.9529 19.2564C34.9955 19.2564 35.0374 19.2384 35.0764 19.2024C35.1162 19.1661 35.1446 19.1103 35.1631 19.0349H35.4728C35.4578 19.2363 35.3997 19.3944 35.2995 19.5093C35.1987 19.6231 35.0679 19.68 34.9066 19.68C34.85 19.68 34.7945 19.6689 34.7398 19.646C34.6844 19.6223 34.6305 19.5975 34.5773 19.5705C34.524 19.5433 34.4713 19.5177 34.4203 19.495C34.3691 19.4722 34.318 19.4607 34.2682 19.4607ZM35.0089 21.7054C34.8052 21.0476 34.69 20.6752 34.6646 20.5889C34.639 20.5029 34.6207 20.4344 34.6098 20.3844C34.5637 20.5626 34.4323 21.0027 34.2165 21.7054H35.0089ZM35.384 22.9746L35.1631 22.2482H34.0537L33.8336 22.9746H33.1384L34.2122 19.911H35.0005L36.0785 22.9746H35.384Z" fill="#5B5C5E"/>
<path d="M37.0134 21.4458C37.0134 21.787 37.078 22.0433 37.2066 22.2164C37.3358 22.3887 37.529 22.4751 37.7853 22.4751C38.3003 22.4751 38.5574 22.1315 38.5574 21.4458C38.5574 20.7585 38.3017 20.4155 37.7895 20.4155C37.5325 20.4155 37.3393 20.5023 37.2088 20.6754C37.0787 20.8484 37.0134 21.1054 37.0134 21.4458ZM39.2334 21.4458C39.2334 21.9517 39.1092 22.3396 38.8592 22.6111C38.6091 22.8824 38.2512 23.0176 37.7853 23.0176C37.3195 23.0176 36.9616 22.8824 36.7117 22.6111C36.4617 22.3396 36.3374 21.9501 36.3374 21.4424C36.3374 20.9345 36.4622 20.5465 36.7131 20.2787C36.963 20.0108 37.3223 19.877 37.7895 19.877C38.2569 19.877 38.6149 20.0117 38.8618 20.2815C39.1099 20.5513 39.2334 20.9395 39.2334 21.4458Z" fill="#5B5C5E"/>
<path d="M42.9192 21.4364C42.9192 20.7811 42.6308 20.4536 42.0543 20.4536H41.7112V22.4406H41.9881C42.6089 22.4406 42.9192 22.1059 42.9192 21.4364ZM43.589 21.4199C43.589 21.9223 43.4469 22.3066 43.162 22.5737C42.8766 22.8409 42.4654 22.9746 41.9272 22.9746H41.0664V19.9237H42.0209C42.5172 19.9237 42.9028 20.0555 43.1778 20.3184C43.4518 20.5811 43.589 20.9484 43.589 21.4199Z" fill="#5B5C5E"/>
<path d="M46.0683 22.9746H44.3164V19.9237H46.0683V20.4536H44.9611V21.1243H45.991V21.6545H44.9611V22.4406H46.0683V22.9746Z" fill="#5B5C5E"/>
<path d="M48.5507 21.6458V22.4406H48.971C49.1494 22.4406 49.2798 22.4063 49.3644 22.338C49.4496 22.2705 49.4917 22.1657 49.4917 22.0255C49.4917 21.7727 49.3113 21.6458 48.9505 21.6458H48.5507ZM48.5507 21.133H48.9257C49.1002 21.133 49.2267 21.1058 49.3054 21.0516C49.3835 20.9971 49.4227 20.9071 49.4227 20.7819C49.4227 20.6644 49.3802 20.5811 49.2948 20.5298C49.2097 20.4793 49.0746 20.4536 48.8899 20.4536H48.5507V21.133ZM47.9058 19.9237H48.8525C49.2842 19.9237 49.5974 19.985 49.7919 20.1083C49.9873 20.2314 50.0845 20.4271 50.0845 20.6964C50.0845 20.8787 50.042 21.0283 49.9567 21.1452C49.8714 21.2618 49.758 21.3325 49.6166 21.3559V21.3767C49.8088 21.4199 49.9482 21.5004 50.0334 21.6185C50.1192 21.737 50.1618 21.8943 50.1618 22.0902C50.1618 22.3686 50.061 22.5851 49.8608 22.7412C49.6608 22.8972 49.3884 22.9746 49.0442 22.9746H47.9058V19.9237Z" fill="#5B5C5E"/>
<path d="M52.6166 22.9746H50.8645V19.9237H52.6166V20.4536H51.5093V21.1243H52.5391V21.6545H51.5093V22.4406H52.6166V22.9746Z" fill="#5B5C5E"/>
<path d="M56.0456 22.9746H55.2261L53.9024 20.6664H53.884C53.9101 21.0745 53.9236 21.3652 53.9236 21.539V22.9746H53.3469V19.9237H54.1608L55.4817 22.2091H55.4966C55.4754 21.8125 55.4655 21.5318 55.4655 21.368V19.9237H56.0456V22.9746Z" fill="#5B5C5E"/>
<path d="M58.6591 22.9746H56.907V19.9237H58.6591V20.4536H57.5519V21.1243H58.5818V21.6545H57.5519V22.4406H58.6591V22.9746Z" fill="#5B5C5E"/>
<path d="M60.0244 22.9746H59.3894V19.9237H61.1338V20.4536H60.0244V21.2398H61.057V21.7697H60.0244V22.9746Z" fill="#5B5C5E"/>
<path d="M61.7871 19.68V19.624C62.0258 19.3462 62.1886 19.1368 62.2759 18.9966H62.9874V19.0401C62.9156 19.1124 62.7921 19.2202 62.6182 19.3624C62.4441 19.505 62.3078 19.6105 62.2097 19.68H61.7871ZM61.8241 22.9746V19.9237H62.469V22.9746H61.8241Z" fill="#5B5C5E"/>
<path d="M64.6226 20.4197C64.3797 20.4197 64.1922 20.5107 64.0587 20.6939C63.926 20.8769 63.859 21.1319 63.859 21.4588C63.859 22.1387 64.1134 22.4793 64.6226 22.4793C64.8356 22.4793 65.0948 22.4258 65.3981 22.3183V22.8609C65.1487 22.9655 64.8698 23.0176 64.5622 23.0176C64.1198 23.0176 63.7818 22.8829 63.5474 22.6138C63.313 22.3447 63.1958 21.9578 63.1958 21.4544C63.1958 21.1375 63.2533 20.8599 63.3682 20.6212C63.4833 20.3827 63.6488 20.1994 63.8641 20.0721C64.08 19.9444 64.3328 19.8812 64.6226 19.8812C64.918 19.8812 65.2141 19.9532 65.5124 20.0962L65.3043 20.6219C65.1905 20.5679 65.0762 20.5209 64.9613 20.4802C64.8463 20.4396 64.7333 20.4197 64.6226 20.4197Z" fill="#5B5C5E"/>
<path d="M66.1416 22.9746V19.9237H66.7865V22.9746H66.1416Z" fill="#5B5C5E"/>
<path d="M68.1893 21.4458C68.1893 21.787 68.2541 22.0433 68.3826 22.2164C68.5117 22.3887 68.705 22.4751 68.9613 22.4751C69.4762 22.4751 69.7333 22.1315 69.7333 21.4458C69.7333 20.7585 69.4777 20.4155 68.9656 20.4155C68.7085 20.4155 68.5153 20.5023 68.3846 20.6754C68.2549 20.8484 68.1893 21.1054 68.1893 21.4458ZM70.4093 21.4458C70.4093 21.9517 70.2852 22.3396 70.0351 22.6111C69.785 22.8824 69.4272 23.0176 68.9613 23.0176C68.4956 23.0176 68.1376 22.8824 67.8876 22.6111C67.6377 22.3396 67.5132 21.9501 67.5132 21.4424C67.5132 20.9345 67.6383 20.5465 67.889 20.2787C68.1391 20.0108 68.4984 19.877 68.9656 19.877C69.4328 19.877 69.7908 20.0117 70.038 20.2815C70.2858 20.5513 70.4093 20.9395 70.4093 21.4458Z" fill="#5B5C5E"/>
<path d="M72.9323 22.1288C72.9323 22.4044 72.8326 22.6211 72.6353 22.7798C72.4378 22.9386 72.1622 23.0176 71.81 23.0176C71.4854 23.0176 71.1979 22.9563 70.9485 22.8338V22.233C71.154 22.3246 71.3278 22.3894 71.47 22.4272C71.6119 22.4649 71.7419 22.4836 71.8597 22.4836C72.0018 22.4836 72.1106 22.4565 72.1858 22.4025C72.2619 22.3483 72.2993 22.2669 72.2993 22.1602C72.2993 22.1002 72.2831 22.0469 72.2497 22.0007C72.2162 21.9538 72.1674 21.9088 72.1027 21.8659C72.038 21.8225 71.9066 21.7535 71.7085 21.6595C71.5224 21.5713 71.3825 21.4872 71.2896 21.4067C71.1966 21.3263 71.1227 21.2321 71.0674 21.1245C71.0112 21.0178 70.9835 20.8925 70.9835 20.7492C70.9835 20.4795 71.075 20.2672 71.2575 20.1127C71.4401 19.958 71.6922 19.8812 72.0139 19.8812C72.1724 19.8812 72.3229 19.8996 72.467 19.9374C72.6105 19.9753 72.7602 20.0278 72.9173 20.0962L72.7093 20.5991C72.5467 20.5321 72.4124 20.4857 72.3063 20.4596C72.2 20.4331 72.0957 20.4197 71.9933 20.4197C71.8711 20.4197 71.7774 20.4481 71.712 20.505C71.6469 20.5621 71.6142 20.6369 71.6142 20.7287C71.6142 20.7856 71.6276 20.8358 71.6537 20.8775C71.6801 20.9202 71.7221 20.9609 71.7797 21.0009C71.8371 21.0408 71.9735 21.1119 72.1886 21.2145C72.4734 21.3513 72.668 21.4879 72.7739 21.6247C72.8791 21.7622 72.9323 21.9294 72.9323 22.1288Z" fill="#5B5C5E"/>
<path fill-rule="evenodd" clip-rule="evenodd" d="M68.4618 16.1016L68.2987 15.7002L66.7188 11.8151H62.3904L62.3887 11.8194H60.9822V13.3615H57.9885L63.1379 0.332108L63.2487 0.0524559H65.8476L65.9582 0.332108L71.8295 15.1881L72.1906 16.1016H68.4618ZM65.3999 8.44438L64.5619 6.03126L63.7047 8.44438H65.3999Z" fill="#100F0D"/>
<path fill-rule="evenodd" clip-rule="evenodd" d="M3.50753 3.57045V7.74311H6.03712C6.65712 7.74311 7.12195 7.52845 7.43737 7.19973C7.81479 6.80637 8.00245 6.24062 8.00245 5.66726C8.00245 5.0836 7.8147 4.51211 7.43737 4.1157C7.12258 3.78523 6.65767 3.57045 6.03712 3.57045H3.50753ZM0 15.4105V0.0530128H6.03712C7.70759 0.0530128 9.00174 0.666421 9.912 1.6075C10.9481 2.67868 11.4681 4.16606 11.4681 5.64642C11.4681 7.12572 10.949 8.60596 9.91442 9.67093C9.00353 10.6086 7.70851 11.2184 6.03712 11.2184H3.50753V15.4105V16.1006H2.81939H0.688151H0V15.4105Z" fill="#100F0D"/>
<path fill-rule="evenodd" clip-rule="evenodd" d="M15.1092 3.57045V7.28206H17.6596C18.2908 7.28206 18.7617 7.08286 19.0788 6.77721C19.4437 6.42588 19.6252 5.92338 19.6252 5.41583C19.6252 4.91906 19.4437 4.42182 19.0787 4.07308C18.7608 3.7693 18.29 3.57045 17.6596 3.57045H15.1092ZM19.9953 15.8501L15.1092 9.95093V16.1006H11.6436V15.4105V0.743127V0.0530128H12.3318H17.6596C21.2941 0.0530128 23.1116 2.74648 23.1116 5.41583C23.1116 6.66162 22.7056 7.87965 21.9011 8.8335C21.3804 9.451 20.6969 9.95433 19.8539 10.2787L23.7835 14.9686L24.7323 16.1006H23.2593H20.5221H20.203L19.9953 15.8501Z" fill="#100F0D"/>
<path fill-rule="evenodd" clip-rule="evenodd" d="M22.7881 11.0997C22.4035 10.1611 22.1865 9.13651 22.1865 8.06298C22.1865 6.98934 22.4035 5.96477 22.7881 5.02615C23.193 4.03788 23.7852 3.14927 24.5059 2.40353L24.5085 2.40107C25.2366 1.6592 26.1168 1.05644 27.0953 0.643875C28.0399 0.245476 29.0717 0.0235577 30.1418 0.0235577C31.2205 0.0235577 32.2477 0.243133 33.1864 0.637433C34.1702 1.05059 35.0532 1.65393 35.7929 2.3958L35.7983 2.40353C36.5189 3.14927 37.1109 4.03788 37.5159 5.02615C37.9007 5.96477 38.1175 6.98934 38.1175 8.06298C38.1175 9.13651 37.9007 10.1611 37.5159 11.0997C37.1109 12.0878 36.5189 12.9767 35.7983 13.7223L35.7956 13.7249C35.0569 14.4774 34.1788 15.0791 33.2035 15.489C32.2598 15.8854 31.2265 16.1025 30.1418 16.1025C29.0657 16.1025 28.0281 15.883 27.0782 15.4825C26.1055 15.0721 25.2304 14.4717 24.5059 13.7223C23.7852 12.9767 23.193 12.0878 22.7881 11.0997ZM34.3477 9.81116C34.5629 9.28301 34.684 8.69501 34.684 8.06298C34.684 7.43084 34.5629 6.84296 34.3477 6.31469C34.119 5.75398 33.7821 5.25135 33.3689 4.82672L33.3675 4.82789C32.941 4.39998 32.4316 4.05533 31.8723 3.81971C31.3322 3.59252 30.7453 3.46698 30.1418 3.46698C29.5376 3.46698 28.957 3.59135 28.428 3.81667C27.8761 4.05158 27.3762 4.39565 26.9595 4.82274L26.9569 4.82789C26.5364 5.24948 26.1956 5.75409 25.9643 6.31445L25.9633 6.31398C25.7429 6.84834 25.6199 7.43915 25.6199 8.06298C25.6199 8.68682 25.7429 9.2775 25.9633 9.81187L25.9643 9.8114C26.1956 10.3718 26.5364 10.8766 26.9569 11.2978L26.9595 11.3032C27.3762 11.7303 27.876 12.0741 28.4279 12.3093C28.9571 12.5346 29.5376 12.6591 30.1418 12.6591C30.7452 12.6591 31.3323 12.5335 31.8723 12.3061C32.4335 12.0698 32.9423 11.7268 33.3656 11.3026C33.7803 10.8774 34.1186 10.3734 34.3477 9.81116Z" fill="#100F0D"/>
<path fill-rule="evenodd" clip-rule="evenodd" d="M45.0835 3.40357V16.1641H41.5969V3.40357H37.8556H37.1675V2.71345V0.743706V0.0535927H37.8556H48.8041H49.4922V0.743706V2.71345V3.40357H48.8041H45.0835Z" fill="#100F0D"/>
<path fill-rule="evenodd" clip-rule="evenodd" d="M48.1256 11.0864C47.7515 10.1523 47.5386 9.13342 47.5386 8.06938C47.5386 6.98895 47.7509 5.96215 48.1238 5.0233C48.5212 4.02285 49.1007 3.12838 49.7992 2.38112L49.8073 2.37304C50.5182 1.63632 51.3782 1.03216 52.3372 0.61877C53.253 0.224117 54.2595 0.00149727 55.314 0.00149727C57.1274 0.00149727 58.7549 0.574739 60.047 1.6006C60.3892 1.87205 60.707 2.17478 60.9979 2.50666L59.4131 6.43667L59.3579 6.27951C59.0323 5.35284 58.5035 4.65535 57.8379 4.18856C57.1378 3.69788 56.2704 3.45101 55.314 3.45101C54.7276 3.45101 54.1695 3.57456 53.6627 3.79625C53.1251 4.03105 52.6416 4.37417 52.2392 4.79553L52.2404 4.79681C51.829 5.22847 51.4949 5.73613 51.2682 6.30445C51.0557 6.83741 50.9368 7.42974 50.9368 8.06938C50.9368 8.6897 51.0562 9.27301 51.2698 9.80234C51.4974 10.3663 51.8298 10.8726 52.2379 11.3003C52.6406 11.7222 53.1245 12.0659 53.6627 12.3009C54.1695 12.5225 54.7276 12.6459 55.314 12.6459C56.2841 12.6459 57.1747 12.3667 57.8966 11.8455C58.6029 11.336 59.1578 10.5887 59.4795 9.6385L59.637 9.17312H60.1251H62.1782H62.4846L63.0007 9.38239L62.8398 10.0237C62.3846 11.8387 61.4186 13.3643 60.0968 14.4334C58.7924 15.4887 57.1487 16.0957 55.314 16.0957C54.2536 16.0957 53.2412 15.8755 52.32 15.4784C51.3668 15.0679 50.511 14.4648 49.802 13.7185L49.7992 13.7158C49.1007 12.9689 48.5219 12.0763 48.1256 11.0864Z" fill="#100F0D"/>
<path fill-rule="evenodd" clip-rule="evenodd" d="M76.3771 3.57045V7.28206H78.9274C79.5586 7.28206 80.0295 7.08286 80.3466 6.77721C80.7114 6.42588 80.8928 5.92338 80.8928 5.41583C80.8928 4.91906 80.7114 4.42182 80.3466 4.07308C80.0285 3.7693 79.5577 3.57045 78.9274 3.57045H76.3771ZM81.263 15.8501L76.3771 9.95093V16.1006H72.9114V15.4105V0.743127V0.0530128H73.5997H78.9274C82.5619 0.0530128 84.3793 2.74648 84.3793 5.41583C84.3793 6.66162 83.9733 7.87965 83.1686 8.8335C82.6482 9.45089 81.9648 9.95433 81.1216 10.2787L85.0512 14.9686L85.9999 16.1006H84.527H81.7897H81.4705L81.263 15.8501Z" fill="#100F0D"/>
<path fill-rule="evenodd" clip-rule="evenodd" d="M71.9849 0.0400734V11.8623L66.834 0.0400734H71.9849Z" fill="#FED200"/>
</g>
<defs>
<clipPath id="clip0_97_1899">
<rect width="86" height="24" fill="white"/>
</clipPath>
</defs>
</svg>
